<?xml version="1.0" encoding="UTF-8"?>
<svg width="180px" height="180px" viewBox="0 0 180 180" version="1.1" xmlns="http://www.w3.org/2000/svg" xmlns:xlink="http://www.w3.org/1999/xlink">
    <g id="Page-1" stroke="none" stroke-width="1" fill="none" fill-rule="evenodd">
        <path d="M0,0 L180,0 L180,180 L0,180 L0,0 Z M146.188066,94.6222826 C146.579098,95.5923963 146.872368,96.5196967 147.067884,97.404212 C147.263399,98.2887272 147.389086,99.1589633 147.444948,100.014946 C147.444948,103.210614 146.59307,105.650127 144.889289,107.33356 C143.185508,109.016992 140.769526,109.858696 137.641273,109.858696 C132.166828,109.858696 128.144848,103.1536 125.575211,89.7432065 C124.90487,86.0339487 124.346262,83.1521842 123.899368,81.0978261 C122.27938,73.6222454 119.402547,67.958579 115.268783,64.1066576 C111.135018,60.2547362 105.828238,58.3288044 99.3482837,58.3288044 C93.9855628,58.3288044 89.6982435,59.7839528 86.4861964,62.6942935 C83.2741498,65.6046341 81.6681509,69.4564978 81.6681509,74.25 C81.6681509,75.9619654 81.9753857,77.8593645 82.589864,79.9422554 C83.2043423,82.0251463 84.0981157,84.2934662 85.271211,86.7472826 C82.2546802,83.5516145 79.0147514,81.1691654 75.5513277,79.5998642 C72.0879037,78.0305629 68.3172969,77.1888596 64.2393944,77.0747282 C62.7311292,73.0801427 59.1281049,69.1997471 53.4302137,65.4334239 C52.7598736,64.9768999 52.2850564,64.6630443 52.0057481,64.4918478 C49.9947276,63.1222757 48.5144153,61.7669904 47.5647668,60.4259511 C46.6151183,59.0849118 46.1403012,57.6154971 46.1403012,56.017663 C46.1403012,55.0475495 46.3358141,54.1345152 46.7268459,53.2785326 C47.1178776,52.42255 47.7882077,51.538048 48.7378562,50.625 C44.4923687,50.625 41.1407183,51.5095021 38.6828044,53.2785326 C36.2248905,55.0475632 34.9959521,57.4442784 34.9959521,60.46875 C34.9959521,62.9225666 35.7361082,64.9055631 37.2164427,66.4177989 C38.6967772,67.9300347 41.1406889,69.1426585 44.5482513,70.0557065 C45.2185914,70.226903 46.1402953,70.4551616 47.3133905,70.7404892 C53.2347284,72.1671269 57.2008481,74.4497128 59.2118685,77.5883152 C51.3912336,79.014953 45.2884368,81.8681853 40.903295,86.1480978 C36.5181532,90.4280104 33.4597722,96.4768629 31.7280602,104.294837 C30.8342734,105.322016 30.0941173,106.42051 29.5075696,107.590353 C28.921022,108.760196 28.4601701,109.97282 28.125,111.228261 L31.3928918,112.683424 C32.5101254,117.819319 34.3116375,121.671183 36.7974822,124.23913 C39.2833269,126.807078 42.4534296,128.091032 46.3078853,128.091032 C49.6037243,128.091032 52.2571143,127.078135 54.2681347,125.05231 C56.2791551,123.026484 57.2846502,120.358713 57.2846502,117.048913 C57.2846502,116.192931 57.2287894,115.308429 57.1170661,114.39538 C57.0053427,113.482333 56.8377602,112.569298 56.6143135,111.65625 C55.3853566,112.911691 54.1284877,113.867524 52.843669,114.523777 C51.5588504,115.18003 50.3019815,115.508152 49.0730246,115.508152 C47.0620042,115.508152 45.386179,114.894708 44.0454987,113.667799 C42.7048184,112.44089 41.6993233,110.600556 41.0289832,108.146739 C48.682033,104.722809 54.4217344,100.799615 58.2482594,96.377038 C62.0747844,91.9544613 64.0997398,86.8899742 64.3231865,81.1834239 C67.8424723,81.4116859 71.0405054,82.3247203 73.9173818,83.9225544 C76.7942581,85.5203884 79.3778219,87.8029743 81.6681509,90.7703804 C77.7019719,92.0828868 74.7413471,93.9374877 72.7861885,96.3342392 C70.8310297,98.7309906 69.853465,101.669819 69.853465,105.150815 C69.853465,111.884544 72.8559852,117.505412 78.8611156,122.013587 C84.8662459,126.521761 92.4493551,128.775815 101.61067,128.775815 C108.59338,128.775815 115.88322,127.178005 123.480408,123.982337 C131.077596,120.786669 139.680166,115.622318 149.288374,108.48913 C151.913873,106.491838 153.910898,104.466043 155.279509,102.411685 C156.648121,100.357327 157.332416,98.3885965 157.332416,96.5054348 C157.332416,95.0217321 156.815703,93.7520431 155.782262,92.6963315 C154.748821,91.64062 153.505917,91.1127718 152.053514,91.1127718 C150.768695,91.1127718 149.665444,91.3838286 148.743726,91.9259511 C147.822008,92.4680736 146.970131,93.3668419 146.188066,94.6222826 Z M60.0497895,81.3546196 C59.8822045,86.1481218 58.1644837,90.1854453 54.8965754,93.466712 C51.6286672,96.7479786 46.7268785,99.3586856 40.1910622,101.298913 C41.1965724,95.2499701 43.2773887,90.6419994 46.4335735,87.4748642 C49.5897583,84.3077288 54.1284516,82.2676676 60.0497895,81.3546196 Z" id="Combined-Shape" fill="#000000"></path>
    </g>
</svg>
