<?xml version="1.0" encoding="UTF-8"?>
<svg width="256px" height="256px" viewBox="0 0 256 256" version="1.1" xmlns="http://www.w3.org/2000/svg" xmlns:xlink="http://www.w3.org/1999/xlink">
    <!-- Generator: Sketch 43.2 (39069) - http://www.bohemiancoding.com/sketch -->
    <title>Untitled 6</title>
    <desc>Created with Sketch.</desc>
    <defs></defs>
    <g id="Page-1" stroke="none" stroke-width="1" fill="none" fill-rule="evenodd">
        <path d="M208.125,135.25 C209.291673,133.416658 210.562493,132.104171 211.9375,131.3125 C213.312507,130.520829 214.958324,130.125 216.875,130.125 C219.041677,130.125 220.895826,130.895826 222.4375,132.4375 C223.979174,133.979174 224.75,135.833323 224.75,138 C224.75,140.750014 223.729177,143.624985 221.6875,146.625 C219.645823,149.625015 216.666686,152.583319 212.75,155.5 C198.416595,165.916719 185.58339,173.45831 174.25,178.125 C162.91661,182.79169 152.041719,185.125 141.625,185.125 C127.958265,185.125 116.645878,181.833366 107.6875,175.25 C98.7291219,168.666634 94.25,160.458382 94.25,150.625 C94.25,145.541641 95.7083187,141.250018 98.625,137.75 C101.541681,134.249982 105.958304,131.541676 111.875,129.625 C108.458316,125.291645 104.604188,121.958345 100.3125,119.625 C96.0208119,117.291655 91.2500263,115.958335 86,115.625 C85.666665,123.958375 82.6458619,131.354134 76.9375,137.8125 C71.2291381,144.270866 62.6667237,149.999975 51.25,155 C52.250005,158.583351 53.74999,161.270824 55.75,163.0625 C57.75001,164.854176 60.249985,165.75 63.25,165.75 C65.0833425,165.75 66.9583237,165.270838 68.875,164.3125 C70.7916763,163.354162 72.6666575,161.958343 74.5,160.125 C74.833335,161.45834 75.0833325,162.79166 75.25,164.125 C75.4166675,165.45834 75.5,166.749994 75.5,168 C75.5,172.833358 74.000015,176.729152 71,179.6875 C67.999985,182.645848 64.0416912,184.125 59.125,184.125 C53.3749713,184.125 48.6458519,182.250019 44.9375,178.5 C41.2291481,174.749981 38.541675,169.125037 36.875,161.625 L32,159.5 C32.5000025,157.666658 33.1874956,155.895842 34.0625,154.1875 C34.9375044,152.479158 36.04166,150.875008 37.375,149.375 C39.9583462,137.958276 44.5208006,129.125031 51.0625,122.875 C57.6041994,116.624969 66.708275,112.458344 78.375,110.375 C75.374985,105.791644 69.4583775,102.458344 60.625,100.375 C58.8749912,99.9583313 57.500005,99.6250012 56.5,99.375 C51.4166412,98.04166 47.7708444,96.2708444 45.5625,94.0625 C43.3541556,91.8541556 42.25,88.9583513 42.25,85.375 C42.25,80.9583113 44.083315,77.4583462 47.75,74.875 C51.416685,72.2916538 56.416635,71 62.75,71 C61.3333263,72.33334 60.3333363,73.6249937 59.75,74.875 C59.1666637,76.1250063 58.875,77.4583263 58.875,78.875 C58.875,81.208345 59.5833263,83.3541569 61,85.3125 C62.4166737,87.2708431 64.624985,89.24999 67.625,91.25 C68.0416687,91.5000012 68.749995,91.95833 69.75,92.625 C78.2500425,98.1250275 83.6249888,103.791637 85.875,109.625 C91.9583637,109.791668 97.5833075,111.020822 102.75,113.3125 C107.916692,115.604178 112.749977,119.08331 117.25,123.75 C115.499991,120.166649 114.166671,116.854182 113.25,113.8125 C112.333329,110.770818 111.875,108.000013 111.875,105.5 C111.875,98.499965 114.270809,92.8750213 119.0625,88.625 C123.854191,84.3749787 130.24996,82.25 138.25,82.25 C147.916715,82.25 155.833302,85.0624719 162,90.6875 C168.166698,96.3125281 172.458321,104.583279 174.875,115.5 C175.54167,118.500015 176.374995,122.708306 177.375,128.125 C181.208353,147.708431 187.208292,157.5 195.375,157.5 C200.04169,157.5 203.645821,156.270846 206.1875,153.8125 C208.729179,151.354154 210,147.79169 210,143.125 C209.916666,141.874994 209.729168,140.604173 209.4375,139.3125 C209.145832,138.020827 208.708336,136.666674 208.125,135.25 Z M79.625,115.875 C70.7916225,117.20834 64.0208569,120.187477 59.3125,124.8125 C54.6041431,129.437523 51.5000075,136.166623 50,145 C59.7500488,142.166652 67.0624756,138.354191 71.9375,133.5625 C76.8125244,128.770809 79.3749988,122.875035 79.625,115.875 Z" id="â§" fill="#000000"></path>
    </g>
</svg>