<?xml version="1.0" encoding="UTF-8"?>
<svg width="32px" height="32px" viewBox="0 0 32 32" version="1.1" xmlns="http://www.w3.org/2000/svg" xmlns:xlink="http://www.w3.org/1999/xlink">
    <g id="icon" transform="translate(5.000000, 9.000000)" fill-rule="nonzero" fill="#000000">
        <path d="M20.9889896,7.82173913 C21.1280232,7.59854967 21.2794681,7.43876864 21.443329,7.3423913 C21.60719,7.24601397 21.8033236,7.19782609 22.0317358,7.19782609 C22.2899408,7.19782609 22.5109015,7.29166577 22.6946244,7.47934783 C22.8783472,7.66702988 22.9702073,7.89275237 22.9702073,8.15652174 C22.9702073,8.49130605 22.8485548,8.84130252 22.6052461,9.20652174 C22.3619375,9.57174096 22.0069108,9.93188231 21.5401554,10.2869565 C19.8320295,11.5550788 18.3026838,12.4731856 16.9520725,13.0413043 C15.6014613,13.6094231 14.3054898,13.8934783 13.0641192,13.8934783 C11.4354409,13.8934783 10.0873326,13.4927576 9.01975389,12.6913043 C7.95217515,11.8898511 7.41839378,10.8905856 7.41839378,9.69347826 C7.41839378,9.07463456 7.59218306,8.5521761 7.93976684,8.12608696 C8.28735059,7.69999781 8.8136839,7.37029099 9.51878238,7.13695652 C9.11161279,6.60941765 8.65231256,6.20362461 8.14086788,5.91956522 C7.62942318,5.63550583 7.06088396,5.47318861 6.43523316,5.4326087 C6.3955093,6.44710652 6.03551722,7.34745979 5.35524611,8.13369565 C4.67497501,8.91993151 3.65458365,9.61738826 2.29404145,10.226087 C2.41321303,10.662321 2.59196772,10.9894916 2.83031088,11.2076087 C3.06865404,11.4257258 3.36657852,11.5347826 3.72409326,11.5347826 C3.94257449,11.5347826 4.16601785,11.4764498 4.39443005,11.3597826 C4.62284225,11.2431154 4.84628561,11.0731896 5.06476684,10.85 C5.1044907,11.0123197 5.13428315,11.1746369 5.15414508,11.3369565 C5.17400701,11.4992762 5.18393782,11.656521 5.18393782,11.8086957 C5.18393782,12.3971045 5.00518313,12.871375 4.64766839,13.2315217 C4.29015365,13.5916685 3.81843988,13.7717391 3.23251295,13.7717391 C2.54727637,13.7717391 1.98370256,13.5434806 1.54177461,13.0869565 C1.09984666,12.6304325 0.77957785,11.9456567 0.580958549,11.0326087 L0,10.773913 C0.0595857902,10.5507236 0.14151502,10.335146 0.245790155,10.1271739 C0.350065291,9.91920184 0.481648601,9.72391402 0.640544041,9.54130435 C0.948403951,8.1514423 1.49211613,7.07609073 2.27169689,6.31521739 C3.05127765,5.55434405 4.1362193,5.04710275 5.5265544,4.79347826 C5.16903966,4.23550449 4.46395172,3.82971144 3.41126943,3.57608696 C3.20271916,3.52536207 3.0388607,3.48478275 2.91968912,3.45434783 C2.31390025,3.29202817 1.87942705,3.07645062 1.61625648,2.8076087 C1.3530859,2.53876677 1.22150259,2.18623407 1.22150259,1.75 C1.22150259,1.21231616 1.43998054,0.78623345 1.87694301,0.47173913 C2.31390547,0.15724481 2.90975443,0 3.66450777,0 C3.49568137,0.162319652 3.37651158,0.31956445 3.30699482,0.47173913 C3.23747806,0.62391381 3.20272021,0.786231028 3.20272021,0.958695652 C3.20272021,1.24275504 3.28713215,1.50398432 3.45595855,1.7423913 C3.62478495,1.98079829 3.88795158,2.22173791 4.24546632,2.46521739 C4.29512114,2.49565232 4.37953308,2.55144887 4.49870466,2.6326087 C5.5116631,3.30217726 6.15220074,3.99202537 6.42033679,4.70217391 C7.14529723,4.72246393 7.81562732,4.87210007 8.43134715,5.15108696 C9.04706692,5.43007384 9.62305425,5.85362035 10.1593264,6.42173913 C9.95077613,5.9855051 9.79188307,5.58224824 9.68264249,5.21195652 C9.5734019,4.8416648 9.51878238,4.50434941 9.51878238,4.2 C9.51878238,3.34782183 9.8042933,2.66304607 10.3753238,2.14565217 C10.9463544,1.62825828 11.7085445,1.36956522 12.6619171,1.36956522 C13.813909,1.36956522 14.7573365,1.7119531 15.492228,2.39673913 C16.2271195,3.08152516 16.7385564,4.08839918 17.0265544,5.4173913 C17.1060021,5.78261052 17.2053103,6.29492421 17.3244819,6.95434783 C17.7813063,9.33841769 18.496325,10.5304348 19.4695596,10.5304348 C20.0256936,10.5304348 20.4552015,10.3807986 20.7580959,10.0815217 C21.0609902,9.78224483 21.2124352,9.34855357 21.2124352,8.78043478 C21.2025042,8.62826014 21.1801599,8.4735515 21.1454016,8.31630435 C21.1106432,8.1590572 21.0585064,7.99420379 20.9889896,7.82173913 Z M5.67551813,5.46304348 C4.62283584,5.62536313 3.81595704,5.98804068 3.25485751,6.55108696 C2.69375799,7.11413323 2.32383509,7.93332802 2.14507772,9.00869565 C3.30700063,8.66376633 4.17842973,8.19964064 4.75939119,7.61630435 C5.34035265,7.03296805 5.64572525,6.31522165 5.67551813,5.46304348 Z" id="â§"></path>
    </g>
</svg>